<mxfile host="app.diagrams.net" modified="2021-03-09T01:46:57.834Z" agent="5.0 (Windows)" etag="1oq84oL0mqj9gRV_MFj0" version="14.4.5" type="github">
  <diagram id="cw6OECEupjeSbrKVj3yr" name="Page-1">
    <mxGraphModel dx="1422" dy="803" grid="1" gridSize="10" guides="1" tooltips="1" connect="1" arrows="1" fold="1" page="1" pageScale="1" pageWidth="850" pageHeight="1100" math="0" shadow="0">
      <root>
        <mxCell id="0" />
        <mxCell id="1" parent="0" />
        <mxCell id="-h6L4g7KQ3lQxatRPT4w-1" value="" style="rounded=0;whiteSpace=wrap;html=1;" vertex="1" parent="1">
          <mxGeometry x="180" y="210" width="120" height="60" as="geometry" />
        </mxCell>
        <mxCell id="-h6L4g7KQ3lQxatRPT4w-2" value="" style="rounded=1;whiteSpace=wrap;html=1;" vertex="1" parent="1">
          <mxGeometry x="640" y="330" width="120" height="60" as="geometry" />
        </mxCell>
      </root>
    </mxGraphModel>
  </diagram>
</mxfile>
